<svg preserveAspectRatio="none" viewBox="0 0 1300 200" width="1300" height="200" xmlns="http://www.w3.org/2000/svg" xmlns:xlink="http://www.w3.org/1999/xlink" version="1.1">
<path d="M0 71L9.5 68.3C19 65.7 38 60.3 56.8 59.2C75.7 58 94.3 61 113.2 62.5C132 64 151 64 169.8 62.5C188.7 61 207.3 58 226.2 57.8C245 57.7 264 60.3 282.8 63.3C301.7 66.3 320.3 69.7 339.2 70.2C358 70.7 377 68.3 395.8 68.3C414.7 68.3 433.3 70.7 452.2 68.8C471 67 490 61 508.8 59C527.7 57 546.3 59 565.2 61C584 63 603 65 621.8 64.2C640.7 63.3 659.3 59.7 678.2 59.3C697 59 716 62 734.8 64.5C753.7 67 772.3 69 791.2 68.8C810 68.7 829 66.3 847.8 66.5C866.7 66.7 885.3 69.3 904.2 69.7C923 70 942 68 960.8 67.3C979.7 66.7 998.3 67.3 1017.2 66.8C1036 66.3 1055 64.7 1073.8 62.8C1092.7 61 1111.3 59 1130.2 59.2C1149 59.3 1168 61.7 1186.8 65.2C1205.7 68.7 1224.3 73.3 1243.2 74.5C1262 75.7 1281 73.3 1290.5 72.2L1300 71L1300 0L1290.5 0C1281 0 1262 0 1243.2 0C1224.3 0 1205.7 0 1186.8 0C1168 0 1149 0 1130.2 0C1111.3 0 1092.7 0 1073.8 0C1055 0 1036 0 1017.2 0C998.3 0 979.7 0 960.8 0C942 0 923 0 904.2 0C885.3 0 866.7 0 847.8 0C829 0 810 0 791.2 0C772.3 0 753.7 0 734.8 0C716 0 697 0 678.2 0C659.3 0 640.7 0 621.8 0C603 0 584 0 565.2 0C546.3 0 527.7 0 508.8 0C490 0 471 0 452.2 0C433.3 0 414.7 0 395.8 0C377 0 358 0 339.2 0C320.3 0 301.7 0 282.8 0C264 0 245 0 226.2 0C207.3 0 188.7 0 169.8 0C151 0 132 0 113.2 0C94.3 0 75.7 0 56.8 0C38 0 19 0 9.5 0L0 0Z" fill="#140103"></path>
<path d="M0 54L9.5 54.2C19 54.3 38 54.7 56.8 53.5C75.7 52.3 94.3 49.7 113.2 48C132 46.3 151 45.7 169.8 47.7C188.7 49.7 207.3 54.3 226.2 55.3C245 56.3 264 53.7 282.8 52C301.7 50.3 320.3 49.7 339.2 51.2C358 52.7 377 56.3 395.8 56.3C414.7 56.3 433.3 52.7 452.2 50.2C471 47.7 490 46.3 508.8 46C527.7 45.7 546.3 46.3 565.2 49.2C584 52 603 57 621.8 56.7C640.7 56.3 659.3 50.7 678.2 48.7C697 46.7 716 48.3 734.8 49C753.7 49.7 772.3 49.3 791.2 49C810 48.7 829 48.3 847.8 48.3C866.7 48.3 885.3 48.7 904.2 50.7C923 52.7 942 56.3 960.8 56.2C979.7 56 998.3 52 1017.2 52C1036 52 1055 56 1073.8 57.8C1092.7 59.7 1111.3 59.3 1130.2 58.7C1149 58 1168 57 1186.8 54.5C1205.7 52 1224.3 48 1243.2 49C1262 50 1281 56 1290.5 59L1300 62L1300 0L1290.5 0C1281 0 1262 0 1243.2 0C1224.3 0 1205.7 0 1186.8 0C1168 0 1149 0 1130.2 0C1111.3 0 1092.7 0 1073.8 0C1055 0 1036 0 1017.2 0C998.3 0 979.7 0 960.8 0C942 0 923 0 904.2 0C885.3 0 866.7 0 847.8 0C829 0 810 0 791.2 0C772.3 0 753.7 0 734.8 0C716 0 697 0 678.2 0C659.3 0 640.7 0 621.8 0C603 0 584 0 565.2 0C546.3 0 527.7 0 508.8 0C490 0 471 0 452.2 0C433.3 0 414.7 0 395.8 0C377 0 358 0 339.2 0C320.3 0 301.7 0 282.8 0C264 0 245 0 226.2 0C207.3 0 188.7 0 169.8 0C151 0 132 0 113.2 0C94.3 0 75.7 0 56.8 0C38 0 19 0 9.5 0L0 0Z" fill="#240608"></path>
<path d="M0 43L9.5 42.5C19 42 38 41 56.8 38.2C75.7 35.3 94.3 30.7 113.2 28.8C132 27 151 28 169.8 28.5C188.7 29 207.3 29 226.2 30.8C245 32.7 264 36.3 282.8 37.2C301.7 38 320.3 36 339.2 36.2C358 36.3 377 38.7 395.8 39.3C414.7 40 433.3 39 452.2 37.8C471 36.7 490 35.3 508.8 36.2C527.7 37 546.3 40 565.2 39.3C584 38.7 603 34.3 621.8 33.8C640.7 33.3 659.3 36.7 678.2 37.5C697 38.3 716 36.7 734.8 37.2C753.7 37.7 772.3 40.3 791.2 40.7C810 41 829 39 847.8 36.2C866.7 33.3 885.3 29.7 904.2 29.2C923 28.7 942 31.3 960.8 34C979.7 36.7 998.3 39.3 1017.2 39.5C1036 39.7 1055 37.3 1073.8 36C1092.7 34.7 1111.3 34.3 1130.2 33.5C1149 32.7 1168 31.3 1186.8 31.5C1205.7 31.7 1224.3 33.3 1243.2 35C1262 36.7 1281 38.3 1290.5 39.2L1300 40L1300 0L1290.5 0C1281 0 1262 0 1243.2 0C1224.3 0 1205.7 0 1186.8 0C1168 0 1149 0 1130.2 0C1111.3 0 1092.7 0 1073.8 0C1055 0 1036 0 1017.2 0C998.3 0 979.7 0 960.8 0C942 0 923 0 904.2 0C885.3 0 866.7 0 847.8 0C829 0 810 0 791.2 0C772.3 0 753.7 0 734.8 0C716 0 697 0 678.2 0C659.3 0 640.7 0 621.8 0C603 0 584 0 565.2 0C546.3 0 527.7 0 508.8 0C490 0 471 0 452.2 0C433.3 0 414.7 0 395.8 0C377 0 358 0 339.2 0C320.3 0 301.7 0 282.8 0C264 0 245 0 226.2 0C207.3 0 188.7 0 169.8 0C151 0 132 0 113.2 0C94.3 0 75.7 0 56.8 0C38 0 19 0 9.5 0L0 0Z" fill="#33080b"></path>
<path d="M0 12L9.5 14.3C19 16.7 38 21.3 56.8 23.3C75.7 25.3 94.3 24.7 113.2 23.2C132 21.7 151 19.3 169.8 19.7C188.7 20 207.3 23 226.2 23.7C245 24.3 264 22.7 282.8 21.2C301.7 19.7 320.3 18.3 339.2 17.2C358 16 377 15 395.8 15.7C414.7 16.3 433.3 18.7 452.2 19C471 19.3 490 17.7 508.8 16.5C527.7 15.3 546.3 14.7 565.2 16.3C584 18 603 22 621.8 21.7C640.7 21.3 659.3 16.7 678.2 15.2C697 13.7 716 15.3 734.8 17C753.7 18.7 772.3 20.3 791.2 21.5C810 22.7 829 23.3 847.8 22C866.7 20.7 885.3 17.3 904.2 15.7C923 14 942 14 960.8 15.5C979.7 17 998.3 20 1017.2 20C1036 20 1055 17 1073.8 15.7C1092.7 14.3 1111.3 14.7 1130.2 14.2C1149 13.7 1168 12.3 1186.8 13C1205.7 13.7 1224.3 16.3 1243.2 18.8C1262 21.3 1281 23.7 1290.5 24.8L1300 26L1300 0L1290.5 0C1281 0 1262 0 1243.2 0C1224.3 0 1205.7 0 1186.8 0C1168 0 1149 0 1130.2 0C1111.3 0 1092.7 0 1073.8 0C1055 0 1036 0 1017.2 0C998.3 0 979.7 0 960.8 0C942 0 923 0 904.2 0C885.3 0 866.7 0 847.8 0C829 0 810 0 791.2 0C772.3 0 753.7 0 734.8 0C716 0 697 0 678.2 0C659.3 0 640.7 0 621.8 0C603 0 584 0 565.2 0C546.3 0 527.7 0 508.8 0C490 0 471 0 452.2 0C433.3 0 414.7 0 395.8 0C377 0 358 0 339.2 0C320.3 0 301.7 0 282.8 0C264 0 245 0 226.2 0C207.3 0 188.7 0 169.8 0C151 0 132 0 113.2 0C94.3 0 75.7 0 56.8 0C38 0 19 0 9.5 0L0 0Z" fill="#42050a"></path>
</svg>