<svg preserveAspectRatio="none" viewBox="0 0 1300 200" width="1300" height="200" xmlns="http://www.w3.org/2000/svg" xmlns:xlink="http://www.w3.org/1999/xlink" version="1.1">
<path d="M0 127L9.5 129.7C19 132.3 38 137.7 56.8 138.8C75.7 140 94.3 137 113.2 135.5C132 134 151 134 169.8 135.5C188.7 137 207.3 140 226.2 140.2C245 140.3 264 137.7 282.8 134.7C301.7 131.7 320.3 128.3 339.2 127.8C358 127.3 377 129.7 395.8 129.7C414.7 129.7 433.3 127.3 452.2 129.2C471 131 490 137 508.8 139C527.7 141 546.3 139 565.2 137C584 135 603 133 621.8 133.8C640.7 134.7 659.3 138.3 678.2 138.7C697 139 716 136 734.8 133.5C753.7 131 772.3 129 791.2 129.2C810 129.3 829 131.7 847.8 131.5C866.7 131.3 885.3 128.7 904.2 128.3C923 128 942 130 960.8 130.7C979.7 131.3 998.3 130.7 1017.2 131.2C1036 131.7 1055 133.3 1073.8 135.2C1092.7 137 1111.3 139 1130.2 138.8C1149 138.7 1168 136.3 1186.8 132.8C1205.7 129.3 1224.3 124.7 1243.2 123.5C1262 122.3 1281 124.7 1290.5 125.8L1300 127L1300 201L1290.5 201C1281 201 1262 201 1243.2 201C1224.3 201 1205.7 201 1186.8 201C1168 201 1149 201 1130.2 201C1111.3 201 1092.7 201 1073.8 201C1055 201 1036 201 1017.2 201C998.3 201 979.7 201 960.8 201C942 201 923 201 904.2 201C885.3 201 866.7 201 847.8 201C829 201 810 201 791.2 201C772.3 201 753.7 201 734.8 201C716 201 697 201 678.2 201C659.3 201 640.7 201 621.8 201C603 201 584 201 565.2 201C546.3 201 527.7 201 508.8 201C490 201 471 201 452.2 201C433.3 201 414.7 201 395.8 201C377 201 358 201 339.2 201C320.3 201 301.7 201 282.8 201C264 201 245 201 226.2 201C207.3 201 188.7 201 169.8 201C151 201 132 201 113.2 201C94.3 201 75.7 201 56.8 201C38 201 19 201 9.5 201L0 201Z" fill="#140103"></path>
<path d="M0 144L9.5 143.8C19 143.7 38 143.3 56.8 144.5C75.7 145.7 94.3 148.3 113.2 150C132 151.7 151 152.3 169.8 150.3C188.7 148.3 207.3 143.7 226.2 142.7C245 141.7 264 144.3 282.8 146C301.7 147.7 320.3 148.3 339.2 146.8C358 145.3 377 141.7 395.8 141.7C414.7 141.7 433.3 145.3 452.2 147.8C471 150.3 490 151.7 508.8 152C527.7 152.3 546.3 151.7 565.2 148.8C584 146 603 141 621.8 141.3C640.7 141.7 659.3 147.3 678.2 149.3C697 151.3 716 149.7 734.8 149C753.7 148.3 772.3 148.7 791.2 149C810 149.3 829 149.7 847.8 149.7C866.7 149.7 885.3 149.3 904.2 147.3C923 145.3 942 141.7 960.8 141.8C979.7 142 998.3 146 1017.2 146C1036 146 1055 142 1073.8 140.2C1092.7 138.3 1111.3 138.7 1130.2 139.3C1149 140 1168 141 1186.8 143.5C1205.7 146 1224.3 150 1243.2 149C1262 148 1281 142 1290.5 139L1300 136L1300 201L1290.5 201C1281 201 1262 201 1243.2 201C1224.3 201 1205.7 201 1186.8 201C1168 201 1149 201 1130.2 201C1111.3 201 1092.7 201 1073.8 201C1055 201 1036 201 1017.2 201C998.3 201 979.7 201 960.8 201C942 201 923 201 904.2 201C885.3 201 866.7 201 847.8 201C829 201 810 201 791.2 201C772.3 201 753.7 201 734.8 201C716 201 697 201 678.2 201C659.3 201 640.7 201 621.8 201C603 201 584 201 565.2 201C546.3 201 527.7 201 508.8 201C490 201 471 201 452.2 201C433.3 201 414.7 201 395.8 201C377 201 358 201 339.2 201C320.3 201 301.7 201 282.8 201C264 201 245 201 226.2 201C207.3 201 188.7 201 169.8 201C151 201 132 201 113.2 201C94.3 201 75.7 201 56.8 201C38 201 19 201 9.5 201L0 201Z" fill="#240608"></path>
<path d="M0 155L9.5 155.5C19 156 38 157 56.8 159.8C75.7 162.7 94.3 167.3 113.2 169.2C132 171 151 170 169.8 169.5C188.7 169 207.3 169 226.2 167.2C245 165.3 264 161.7 282.8 160.8C301.7 160 320.3 162 339.2 161.8C358 161.7 377 159.3 395.8 158.7C414.7 158 433.3 159 452.2 160.2C471 161.3 490 162.7 508.8 161.8C527.7 161 546.3 158 565.2 158.7C584 159.3 603 163.7 621.8 164.2C640.7 164.7 659.3 161.3 678.2 160.5C697 159.7 716 161.3 734.8 160.8C753.7 160.3 772.3 157.7 791.2 157.3C810 157 829 159 847.8 161.8C866.7 164.7 885.3 168.3 904.2 168.8C923 169.3 942 166.7 960.8 164C979.7 161.3 998.3 158.7 1017.2 158.5C1036 158.3 1055 160.7 1073.8 162C1092.7 163.3 1111.3 163.7 1130.2 164.5C1149 165.3 1168 166.7 1186.8 166.5C1205.7 166.3 1224.3 164.7 1243.2 163C1262 161.3 1281 159.7 1290.5 158.8L1300 158L1300 201L1290.5 201C1281 201 1262 201 1243.2 201C1224.3 201 1205.7 201 1186.8 201C1168 201 1149 201 1130.2 201C1111.3 201 1092.7 201 1073.8 201C1055 201 1036 201 1017.2 201C998.3 201 979.7 201 960.8 201C942 201 923 201 904.2 201C885.3 201 866.7 201 847.8 201C829 201 810 201 791.2 201C772.3 201 753.7 201 734.8 201C716 201 697 201 678.2 201C659.3 201 640.7 201 621.8 201C603 201 584 201 565.2 201C546.3 201 527.7 201 508.8 201C490 201 471 201 452.2 201C433.3 201 414.7 201 395.8 201C377 201 358 201 339.2 201C320.3 201 301.7 201 282.8 201C264 201 245 201 226.2 201C207.3 201 188.7 201 169.8 201C151 201 132 201 113.2 201C94.3 201 75.7 201 56.8 201C38 201 19 201 9.5 201L0 201Z" fill="#33080b"></path>
<path d="M0 186L9.5 183.7C19 181.3 38 176.7 56.8 174.7C75.7 172.7 94.3 173.3 113.2 174.8C132 176.3 151 178.7 169.8 178.3C188.7 178 207.3 175 226.2 174.3C245 173.7 264 175.3 282.8 176.8C301.7 178.3 320.3 179.7 339.2 180.8C358 182 377 183 395.8 182.3C414.7 181.7 433.3 179.3 452.2 179C471 178.7 490 180.3 508.8 181.5C527.7 182.7 546.3 183.3 565.2 181.7C584 180 603 176 621.8 176.3C640.7 176.7 659.3 181.3 678.2 182.8C697 184.3 716 182.7 734.8 181C753.7 179.3 772.3 177.7 791.2 176.5C810 175.3 829 174.7 847.8 176C866.7 177.3 885.3 180.7 904.2 182.3C923 184 942 184 960.8 182.5C979.7 181 998.3 178 1017.2 178C1036 178 1055 181 1073.8 182.3C1092.7 183.7 1111.3 183.3 1130.2 183.8C1149 184.3 1168 185.7 1186.8 185C1205.7 184.3 1224.3 181.7 1243.2 179.2C1262 176.7 1281 174.3 1290.5 173.2L1300 172L1300 201L1290.5 201C1281 201 1262 201 1243.2 201C1224.3 201 1205.7 201 1186.8 201C1168 201 1149 201 1130.2 201C1111.3 201 1092.7 201 1073.8 201C1055 201 1036 201 1017.2 201C998.3 201 979.7 201 960.8 201C942 201 923 201 904.2 201C885.3 201 866.7 201 847.8 201C829 201 810 201 791.2 201C772.3 201 753.7 201 734.8 201C716 201 697 201 678.2 201C659.3 201 640.7 201 621.8 201C603 201 584 201 565.2 201C546.3 201 527.7 201 508.8 201C490 201 471 201 452.2 201C433.3 201 414.7 201 395.8 201C377 201 358 201 339.2 201C320.3 201 301.7 201 282.8 201C264 201 245 201 226.2 201C207.3 201 188.7 201 169.8 201C151 201 132 201 113.2 201C94.3 201 75.7 201 56.8 201C38 201 19 201 9.5 201L0 201Z" fill="#42050A"></path>
</svg>